<?xml version="1.0" encoding="utf-8"?>
<!-- Generator: Adobe Illustrator 24.0.1, SVG Export Plug-In . SVG Version: 6.00 Build 0)  -->
<svg version="1.1" id="Layer_1" xmlns="http://www.w3.org/2000/svg" xmlns:xlink="http://www.w3.org/1999/xlink" x="0px" y="0px"
	 viewBox="0 0 1920 1080" style="enable-background:new 0 0 1920 1080;" xml:space="preserve">
<style type="text/css">
	.st0{fill:none;stroke:#15FFD4;stroke-width:5;stroke-miterlimit:10;}
	.st1{fill:none;stroke:#E0017A;stroke-width:5;stroke-miterlimit:10;}
</style>
<path class="st0" d="M1073.05,425.29c0-1.95-1.72-3.54-3.83-3.54h-91.37c-2.11,0-3.83,1.59-3.83,3.53l-0.16,20.87l0.16,61.08
	l-0.01,11.89v135.59c0,1.51,0.99,2.82,2.52,3.33c0.43,0.14,0.87,0.21,1.31,0.21c1.15,0,2.26-0.48,2.99-1.35l24.06-28.19
	c0.54-0.62,0.84-1.41,0.84-2.21V524.78l22.11,25.91v40.92c0,1.51,0.99,2.81,2.51,3.33c1.56,0.52,3.29,0.07,4.31-1.13l24.06-28.19
	c0.54-0.62,0.84-1.41,0.84-2.21v-21.07c0-0.8-0.3-1.59-0.83-2.2l-16-18.75h30.29L1073.05,425.29z M1004.79,453.25l35.41,0.04
	l0.16,46.58h-35.57V453.25z"/>
<path class="st1" d="M953.86,422.15H848.77c-1.03,0-1.99,0.38-2.71,1.07c-0.72,0.69-1.12,1.61-1.11,2.59l0.14,22.9
	c0.01,1.99,1.73,3.62,3.83,3.62h36.68l-0.01,128.78c0,0.78,0.27,1.56,0.77,2.19l24.08,30.39c0.74,0.93,1.88,1.45,3.05,1.45
	c0.41,0,0.82-0.06,1.22-0.19c1.56-0.5,2.61-1.88,2.61-3.45l0.01-159.16h36.55c2.11,0,3.83-1.63,3.83-3.64v-22.9
	C957.69,423.78,955.97,422.15,953.86,422.15z"/>
</svg>
