<svg id="logo" xmlns="http://www.w3.org/2000/svg" viewBox="0 0 233.1 241.5">
    <defs>
        <style>
            .cls-1,.cls-2{fill:none;stroke-miterlimit:10;stroke-width:5px;}
            .cls-1{stroke:#15ffd4;}.cls-2{stroke:#e0017a;}
        </style>
    </defs>
    <title>
        logo
    </title>
    <path id="R" class="cls-1" d="M-929.9,361.85a3.7,3.7,0,0,0-3.83-3.54h-91.37a3.7,3.7,0,0,0-3.83,3.53l-.16,20.87.16,61.08V591.27a3.53,3.53,0,0,0,2.52,3.33,4.22,4.22,0,0,0,1.31.21,3.9,3.9,0,0,0,3-1.35l24.06-28.19a3.38,3.38,0,0,0,.84-2.21V461.34l22.11,25.91v40.92a3.54,3.54,0,0,0,2.51,3.33,4,4,0,0,0,4.31-1.13l24.06-28.19a3.38,3.38,0,0,0,.84-2.21V478.9a3.38,3.38,0,0,0-.83-2.2l-16-18.75h30.29Zm-68.26,28,35.41,0,.16,46.58h-35.57Z" transform="translate(1160.5 -355.81)"/>
    <path id="T" class="cls-2" d="M-1049.09,358.71h-105.09a3.89,3.89,0,0,0-2.71,1.07,3.52,3.52,0,0,0-1.11,2.59l.14,22.9a3.75,3.75,0,0,0,3.83,3.62h36.68V517.67a3.54,3.54,0,0,0,.77,2.19l24.08,30.39a3.9,3.9,0,0,0,3,1.45,3.93,3.93,0,0,0,1.22-.19,3.65,3.65,0,0,0,2.61-3.45V388.9h36.55a3.74,3.74,0,0,0,3.83-3.64v-22.9A3.77,3.77,0,0,0-1049.09,358.71Z" transform="translate(1160.5 -355.81)"/>
</svg>